<mxfile host="app.diagrams.net" modified="2023-12-20T16:35:54.574Z" agent="Mozilla/5.0 (Windows NT 10.0; Win64; x64) AppleWebKit/537.36 (KHTML, like Gecko) Chrome/120.0.0.0 Safari/537.36" etag="20WU67jMTGyioBErvkjJ" version="22.1.11" type="device">
  <diagram name="Page-1" id="Q_LhUgaFdF4Tudv1pnY1">
    <mxGraphModel dx="794" dy="454" grid="1" gridSize="10" guides="1" tooltips="1" connect="1" arrows="1" fold="1" page="1" pageScale="1" pageWidth="827" pageHeight="1169" math="0" shadow="0">
      <root>
        <mxCell id="0" />
        <mxCell id="1" parent="0" />
        <mxCell id="3CtTgwsfyqkdoaRJVMcS-95" value="" style="ellipse;whiteSpace=wrap;html=1;aspect=fixed;fillStyle=solid;fillColor=#FFFFFF;strokeColor=#000000;" vertex="1" parent="1">
          <mxGeometry x="530" y="610" width="40" height="40" as="geometry" />
        </mxCell>
        <mxCell id="3CtTgwsfyqkdoaRJVMcS-43" style="edgeStyle=orthogonalEdgeStyle;rounded=0;orthogonalLoop=1;jettySize=auto;html=1;exitX=0.5;exitY=1;exitDx=0;exitDy=0;entryX=0.5;entryY=0;entryDx=0;entryDy=0;" edge="1" parent="1" source="3CtTgwsfyqkdoaRJVMcS-1" target="3CtTgwsfyqkdoaRJVMcS-12">
          <mxGeometry relative="1" as="geometry" />
        </mxCell>
        <mxCell id="3CtTgwsfyqkdoaRJVMcS-47" style="edgeStyle=orthogonalEdgeStyle;rounded=0;orthogonalLoop=1;jettySize=auto;html=1;exitX=0;exitY=1;exitDx=0;exitDy=0;" edge="1" parent="1" source="3CtTgwsfyqkdoaRJVMcS-1" target="3CtTgwsfyqkdoaRJVMcS-14">
          <mxGeometry relative="1" as="geometry" />
        </mxCell>
        <mxCell id="3CtTgwsfyqkdoaRJVMcS-50" style="edgeStyle=orthogonalEdgeStyle;rounded=0;orthogonalLoop=1;jettySize=auto;html=1;exitX=1;exitY=1;exitDx=0;exitDy=0;entryX=0.5;entryY=0;entryDx=0;entryDy=0;" edge="1" parent="1" source="3CtTgwsfyqkdoaRJVMcS-1" target="3CtTgwsfyqkdoaRJVMcS-48">
          <mxGeometry relative="1" as="geometry" />
        </mxCell>
        <mxCell id="3CtTgwsfyqkdoaRJVMcS-1" value="User/Public TImeline" style="rounded=1;whiteSpace=wrap;html=1;" vertex="1" parent="1">
          <mxGeometry x="320" y="110" width="110" height="40" as="geometry" />
        </mxCell>
        <mxCell id="3CtTgwsfyqkdoaRJVMcS-41" style="edgeStyle=orthogonalEdgeStyle;rounded=0;orthogonalLoop=1;jettySize=auto;html=1;exitX=0.5;exitY=1;exitDx=0;exitDy=0;entryX=0.5;entryY=0;entryDx=0;entryDy=0;" edge="1" parent="1" source="3CtTgwsfyqkdoaRJVMcS-2" target="3CtTgwsfyqkdoaRJVMcS-15">
          <mxGeometry relative="1" as="geometry" />
        </mxCell>
        <mxCell id="3CtTgwsfyqkdoaRJVMcS-54" style="edgeStyle=orthogonalEdgeStyle;rounded=0;orthogonalLoop=1;jettySize=auto;html=1;exitX=0;exitY=1;exitDx=0;exitDy=0;entryX=0.5;entryY=0;entryDx=0;entryDy=0;" edge="1" parent="1" source="3CtTgwsfyqkdoaRJVMcS-2" target="3CtTgwsfyqkdoaRJVMcS-48">
          <mxGeometry relative="1" as="geometry" />
        </mxCell>
        <mxCell id="3CtTgwsfyqkdoaRJVMcS-2" value="Profile" style="rounded=1;whiteSpace=wrap;html=1;" vertex="1" parent="1">
          <mxGeometry x="650" y="110" width="110" height="40" as="geometry" />
        </mxCell>
        <mxCell id="3CtTgwsfyqkdoaRJVMcS-52" style="edgeStyle=orthogonalEdgeStyle;rounded=0;orthogonalLoop=1;jettySize=auto;html=1;exitX=0.5;exitY=1;exitDx=0;exitDy=0;entryX=0.5;entryY=0;entryDx=0;entryDy=0;" edge="1" parent="1" source="3CtTgwsfyqkdoaRJVMcS-12" target="3CtTgwsfyqkdoaRJVMcS-51">
          <mxGeometry relative="1" as="geometry" />
        </mxCell>
        <mxCell id="3CtTgwsfyqkdoaRJVMcS-12" value="Follow/Unfollow" style="rounded=0;whiteSpace=wrap;html=1;" vertex="1" parent="1">
          <mxGeometry x="330" y="240" width="90" height="40" as="geometry" />
        </mxCell>
        <mxCell id="3CtTgwsfyqkdoaRJVMcS-70" style="edgeStyle=orthogonalEdgeStyle;rounded=0;orthogonalLoop=1;jettySize=auto;html=1;exitX=0.5;exitY=1;exitDx=0;exitDy=0;entryX=0.5;entryY=0;entryDx=0;entryDy=0;" edge="1" parent="1" source="3CtTgwsfyqkdoaRJVMcS-14" target="3CtTgwsfyqkdoaRJVMcS-69">
          <mxGeometry relative="1" as="geometry" />
        </mxCell>
        <mxCell id="3CtTgwsfyqkdoaRJVMcS-14" value="Post" style="rounded=0;whiteSpace=wrap;html=1;" vertex="1" parent="1">
          <mxGeometry x="150" y="240" width="70" height="40" as="geometry" />
        </mxCell>
        <mxCell id="3CtTgwsfyqkdoaRJVMcS-89" style="edgeStyle=orthogonalEdgeStyle;rounded=0;orthogonalLoop=1;jettySize=auto;html=1;exitX=0.5;exitY=1;exitDx=0;exitDy=0;entryX=1;entryY=0.5;entryDx=0;entryDy=0;" edge="1" parent="1" source="3CtTgwsfyqkdoaRJVMcS-15" target="3CtTgwsfyqkdoaRJVMcS-85">
          <mxGeometry relative="1" as="geometry" />
        </mxCell>
        <mxCell id="3CtTgwsfyqkdoaRJVMcS-15" value="Delete User" style="rounded=0;whiteSpace=wrap;html=1;" vertex="1" parent="1">
          <mxGeometry x="660" y="240" width="90" height="40" as="geometry" />
        </mxCell>
        <mxCell id="3CtTgwsfyqkdoaRJVMcS-18" value="&lt;font style=&quot;font-size: 18px;&quot;&gt;Authorized User Journey&lt;/font&gt;" style="text;html=1;strokeColor=none;fillColor=none;align=center;verticalAlign=middle;whiteSpace=wrap;rounded=0;" vertex="1" parent="1">
          <mxGeometry x="250" y="10" width="260" height="30" as="geometry" />
        </mxCell>
        <mxCell id="3CtTgwsfyqkdoaRJVMcS-25" value="" style="endArrow=classic;startArrow=classic;html=1;rounded=0;entryX=1;entryY=0.5;entryDx=0;entryDy=0;exitX=0;exitY=0.5;exitDx=0;exitDy=0;" edge="1" parent="1" source="3CtTgwsfyqkdoaRJVMcS-2" target="3CtTgwsfyqkdoaRJVMcS-1">
          <mxGeometry width="50" height="50" relative="1" as="geometry">
            <mxPoint x="500" y="140" as="sourcePoint" />
            <mxPoint x="550" y="90" as="targetPoint" />
          </mxGeometry>
        </mxCell>
        <mxCell id="3CtTgwsfyqkdoaRJVMcS-86" style="edgeStyle=orthogonalEdgeStyle;rounded=0;orthogonalLoop=1;jettySize=auto;html=1;exitX=0.5;exitY=1;exitDx=0;exitDy=0;entryX=0.5;entryY=0;entryDx=0;entryDy=0;" edge="1" parent="1" source="3CtTgwsfyqkdoaRJVMcS-48" target="3CtTgwsfyqkdoaRJVMcS-85">
          <mxGeometry relative="1" as="geometry" />
        </mxCell>
        <mxCell id="3CtTgwsfyqkdoaRJVMcS-48" value="Log out" style="rounded=0;whiteSpace=wrap;html=1;" vertex="1" parent="1">
          <mxGeometry x="510" y="240" width="80" height="40" as="geometry" />
        </mxCell>
        <mxCell id="3CtTgwsfyqkdoaRJVMcS-59" style="edgeStyle=orthogonalEdgeStyle;rounded=0;orthogonalLoop=1;jettySize=auto;html=1;exitX=1;exitY=0.5;exitDx=0;exitDy=0;entryX=0.5;entryY=0;entryDx=0;entryDy=0;" edge="1" parent="1" source="3CtTgwsfyqkdoaRJVMcS-51" target="3CtTgwsfyqkdoaRJVMcS-58">
          <mxGeometry relative="1" as="geometry" />
        </mxCell>
        <mxCell id="3CtTgwsfyqkdoaRJVMcS-62" value="Yes" style="edgeLabel;html=1;align=center;verticalAlign=middle;resizable=0;points=[];" vertex="1" connectable="0" parent="3CtTgwsfyqkdoaRJVMcS-59">
          <mxGeometry x="0.1111" y="2" relative="1" as="geometry">
            <mxPoint x="-2" as="offset" />
          </mxGeometry>
        </mxCell>
        <mxCell id="3CtTgwsfyqkdoaRJVMcS-60" style="edgeStyle=orthogonalEdgeStyle;rounded=0;orthogonalLoop=1;jettySize=auto;html=1;exitX=0;exitY=0.5;exitDx=0;exitDy=0;entryX=0.5;entryY=0;entryDx=0;entryDy=0;" edge="1" parent="1" source="3CtTgwsfyqkdoaRJVMcS-51" target="3CtTgwsfyqkdoaRJVMcS-56">
          <mxGeometry relative="1" as="geometry" />
        </mxCell>
        <mxCell id="3CtTgwsfyqkdoaRJVMcS-61" value="No" style="edgeLabel;html=1;align=center;verticalAlign=middle;resizable=0;points=[];" vertex="1" connectable="0" parent="3CtTgwsfyqkdoaRJVMcS-60">
          <mxGeometry x="0.1111" y="-3" relative="1" as="geometry">
            <mxPoint as="offset" />
          </mxGeometry>
        </mxCell>
        <mxCell id="3CtTgwsfyqkdoaRJVMcS-51" value="Already following?" style="rhombus;whiteSpace=wrap;html=1;" vertex="1" parent="1">
          <mxGeometry x="335" y="320" width="80" height="80" as="geometry" />
        </mxCell>
        <mxCell id="3CtTgwsfyqkdoaRJVMcS-67" style="edgeStyle=orthogonalEdgeStyle;rounded=0;orthogonalLoop=1;jettySize=auto;html=1;exitX=0.5;exitY=1;exitDx=0;exitDy=0;" edge="1" parent="1" source="3CtTgwsfyqkdoaRJVMcS-56" target="3CtTgwsfyqkdoaRJVMcS-64">
          <mxGeometry relative="1" as="geometry" />
        </mxCell>
        <mxCell id="3CtTgwsfyqkdoaRJVMcS-56" value="Follows" style="rounded=0;whiteSpace=wrap;html=1;" vertex="1" parent="1">
          <mxGeometry x="280" y="420" width="70" height="40" as="geometry" />
        </mxCell>
        <mxCell id="3CtTgwsfyqkdoaRJVMcS-68" style="edgeStyle=orthogonalEdgeStyle;rounded=0;orthogonalLoop=1;jettySize=auto;html=1;exitX=0.5;exitY=1;exitDx=0;exitDy=0;entryX=0.5;entryY=0;entryDx=0;entryDy=0;" edge="1" parent="1" source="3CtTgwsfyqkdoaRJVMcS-58" target="3CtTgwsfyqkdoaRJVMcS-64">
          <mxGeometry relative="1" as="geometry" />
        </mxCell>
        <mxCell id="3CtTgwsfyqkdoaRJVMcS-58" value="Unfollows" style="rounded=0;whiteSpace=wrap;html=1;" vertex="1" parent="1">
          <mxGeometry x="400" y="420" width="70" height="40" as="geometry" />
        </mxCell>
        <mxCell id="3CtTgwsfyqkdoaRJVMcS-64" value="User/Public Timeline" style="rounded=1;whiteSpace=wrap;html=1;" vertex="1" parent="1">
          <mxGeometry x="320" y="530" width="110" height="40" as="geometry" />
        </mxCell>
        <mxCell id="3CtTgwsfyqkdoaRJVMcS-72" style="edgeStyle=orthogonalEdgeStyle;rounded=0;orthogonalLoop=1;jettySize=auto;html=1;exitX=0.5;exitY=1;exitDx=0;exitDy=0;entryX=0.5;entryY=0;entryDx=0;entryDy=0;" edge="1" parent="1" source="3CtTgwsfyqkdoaRJVMcS-69" target="3CtTgwsfyqkdoaRJVMcS-71">
          <mxGeometry relative="1" as="geometry" />
        </mxCell>
        <mxCell id="3CtTgwsfyqkdoaRJVMcS-69" value="Post text" style="shape=parallelogram;perimeter=parallelogramPerimeter;whiteSpace=wrap;html=1;fixedSize=1;" vertex="1" parent="1">
          <mxGeometry x="125" y="320" width="120" height="60" as="geometry" />
        </mxCell>
        <mxCell id="3CtTgwsfyqkdoaRJVMcS-76" style="edgeStyle=orthogonalEdgeStyle;rounded=0;orthogonalLoop=1;jettySize=auto;html=1;exitX=0;exitY=0.5;exitDx=0;exitDy=0;entryX=0.5;entryY=1;entryDx=0;entryDy=0;" edge="1" parent="1" source="3CtTgwsfyqkdoaRJVMcS-71" target="3CtTgwsfyqkdoaRJVMcS-75">
          <mxGeometry relative="1" as="geometry" />
        </mxCell>
        <mxCell id="3CtTgwsfyqkdoaRJVMcS-80" value="No" style="edgeLabel;html=1;align=center;verticalAlign=middle;resizable=0;points=[];" vertex="1" connectable="0" parent="3CtTgwsfyqkdoaRJVMcS-76">
          <mxGeometry x="-0.5865" y="2" relative="1" as="geometry">
            <mxPoint y="-17" as="offset" />
          </mxGeometry>
        </mxCell>
        <mxCell id="3CtTgwsfyqkdoaRJVMcS-83" style="edgeStyle=orthogonalEdgeStyle;rounded=0;orthogonalLoop=1;jettySize=auto;html=1;exitX=0.5;exitY=1;exitDx=0;exitDy=0;entryX=0.5;entryY=0;entryDx=0;entryDy=0;" edge="1" parent="1" source="3CtTgwsfyqkdoaRJVMcS-71" target="3CtTgwsfyqkdoaRJVMcS-81">
          <mxGeometry relative="1" as="geometry" />
        </mxCell>
        <mxCell id="3CtTgwsfyqkdoaRJVMcS-84" value="Yes" style="edgeLabel;html=1;align=center;verticalAlign=middle;resizable=0;points=[];" vertex="1" connectable="0" parent="3CtTgwsfyqkdoaRJVMcS-83">
          <mxGeometry x="-0.2667" y="4" relative="1" as="geometry">
            <mxPoint x="-29" as="offset" />
          </mxGeometry>
        </mxCell>
        <mxCell id="3CtTgwsfyqkdoaRJVMcS-71" value="Text&lt;br&gt;Eligible" style="rhombus;whiteSpace=wrap;html=1;" vertex="1" parent="1">
          <mxGeometry x="137.5" y="410" width="95" height="90" as="geometry" />
        </mxCell>
        <mxCell id="3CtTgwsfyqkdoaRJVMcS-79" style="edgeStyle=orthogonalEdgeStyle;rounded=0;orthogonalLoop=1;jettySize=auto;html=1;exitX=0.5;exitY=0;exitDx=0;exitDy=0;entryX=0;entryY=0.5;entryDx=0;entryDy=0;" edge="1" parent="1" source="3CtTgwsfyqkdoaRJVMcS-75" target="3CtTgwsfyqkdoaRJVMcS-1">
          <mxGeometry relative="1" as="geometry" />
        </mxCell>
        <mxCell id="3CtTgwsfyqkdoaRJVMcS-75" value="Throws &lt;br&gt;error" style="rounded=0;whiteSpace=wrap;html=1;" vertex="1" parent="1">
          <mxGeometry x="30" y="310" width="70" height="40" as="geometry" />
        </mxCell>
        <mxCell id="3CtTgwsfyqkdoaRJVMcS-82" style="edgeStyle=orthogonalEdgeStyle;rounded=0;orthogonalLoop=1;jettySize=auto;html=1;exitX=1;exitY=0.5;exitDx=0;exitDy=0;entryX=0;entryY=0.5;entryDx=0;entryDy=0;" edge="1" parent="1" source="3CtTgwsfyqkdoaRJVMcS-81" target="3CtTgwsfyqkdoaRJVMcS-64">
          <mxGeometry relative="1" as="geometry" />
        </mxCell>
        <mxCell id="3CtTgwsfyqkdoaRJVMcS-81" value="Posts&lt;br&gt;Successfully" style="rounded=0;whiteSpace=wrap;html=1;" vertex="1" parent="1">
          <mxGeometry x="150" y="530" width="70" height="40" as="geometry" />
        </mxCell>
        <mxCell id="3CtTgwsfyqkdoaRJVMcS-96" style="edgeStyle=orthogonalEdgeStyle;rounded=0;orthogonalLoop=1;jettySize=auto;html=1;exitX=0.5;exitY=1;exitDx=0;exitDy=0;entryX=0.5;entryY=0;entryDx=0;entryDy=0;" edge="1" parent="1" source="3CtTgwsfyqkdoaRJVMcS-85" target="3CtTgwsfyqkdoaRJVMcS-95">
          <mxGeometry relative="1" as="geometry" />
        </mxCell>
        <mxCell id="3CtTgwsfyqkdoaRJVMcS-85" value="Public Timeline&lt;br&gt;(Logged Out)" style="rounded=1;whiteSpace=wrap;html=1;" vertex="1" parent="1">
          <mxGeometry x="495" y="530" width="110" height="40" as="geometry" />
        </mxCell>
        <mxCell id="3CtTgwsfyqkdoaRJVMcS-92" style="edgeStyle=orthogonalEdgeStyle;rounded=0;orthogonalLoop=1;jettySize=auto;html=1;exitX=0.5;exitY=1;exitDx=0;exitDy=0;entryX=0.5;entryY=0;entryDx=0;entryDy=0;" edge="1" parent="1" source="3CtTgwsfyqkdoaRJVMcS-90" target="3CtTgwsfyqkdoaRJVMcS-1">
          <mxGeometry relative="1" as="geometry" />
        </mxCell>
        <mxCell id="3CtTgwsfyqkdoaRJVMcS-90" value="" style="ellipse;whiteSpace=wrap;html=1;aspect=fixed;fillStyle=solid;fillColor=#000000;strokeColor=#FFFFFF;" vertex="1" parent="1">
          <mxGeometry x="360" y="50" width="30" height="30" as="geometry" />
        </mxCell>
        <mxCell id="3CtTgwsfyqkdoaRJVMcS-93" value="" style="ellipse;whiteSpace=wrap;html=1;aspect=fixed;fillStyle=solid;fillColor=#000000;strokeColor=#FFFFFF;" vertex="1" parent="1">
          <mxGeometry x="535" y="615" width="30" height="30" as="geometry" />
        </mxCell>
        <mxCell id="3CtTgwsfyqkdoaRJVMcS-97" value="Check Non-Authorized User Journey Flowchart" style="text;html=1;align=center;verticalAlign=middle;resizable=0;points=[];autosize=1;strokeColor=none;fillColor=none;" vertex="1" parent="1">
          <mxGeometry x="415" y="660" width="270" height="30" as="geometry" />
        </mxCell>
      </root>
    </mxGraphModel>
  </diagram>
</mxfile>
